# xmcd
#
# Track frame offsets: 
#        150
#        10415
#        20387
#        99332
#        108762
#        120275
#        132729
#        149751
#        161940
#        176106
#        190096
#        207932
#        222949
#        231464
#
# Disc length: 3288 seconds
#
# Revision: 0
# Processed by: cddbd v1.5.2PL0 Copyright (c) Steve Scherf et al.
# Submitted via: ExactAudioCopy v1.0b3
#
DISCID=cd0cd60e
DTITLE=八代亜紀 - 八代亜紀 イン アメリカ Disc 2 TECE-3171-2
DYEAR=1900
DGENRE=Blues
TTITLE0=おんなの夢
TTITLE1=恋歌
TTITLE2=MC 
TTITLE3=おんな港町 
TTITLE4=ふたりづれ
TTITLE5=愛の終着駅
TTITLE6=貴方につくします~涙の朝~女だから <メドレー>  
TTITLE7=もう一度逢いたい
TTITLE8=女の街角
TTITLE9=MC
TTITLE10=舟唄 
TTITLE11=港町絶唱 
TTITLE12=MC
TTITLE13=雨の慕情
EXTD=
EXTT0=
EXTT1=
EXTT2=
EXTT3=
EXTT4=
EXTT5=
EXTT6=
EXTT7=
EXTT8=
EXTT9=
EXTT10=
EXTT11=
EXTT12=
EXTT13=
PLAYORDER=
